<?xml version="1.0" standalone="no"?><!DOCTYPE svg PUBLIC "-//W3C//DTD SVG 1.1//EN" "http://www.w3.org/Graphics/SVG/1.1/DTD/svg11.dtd"><svg t="1773555708762" class="icon" viewBox="0 0 1024 1024" version="1.1" xmlns="http://www.w3.org/2000/svg" p-id="2881" xmlns:xlink="http://www.w3.org/1999/xlink" width="200" height="200"><path d="M383.488 73.142857l325.778286 429.275429 191.488-82.066286a18.285714 18.285714 0 0 1 22.674285 7.094857l46.226286 73.654857a18.285714 18.285714 0 0 1-2.56 22.674286l-144.091428 144.091429 154.404571 154.477714v142.774857a18.285714 18.285714 0 0 1-12.507429 12.434286l-142.628571-0.073143-154.331429-154.404572-144.237714 144.091429a18.285714 18.285714 0 0 1-22.674286 2.56l-73.654857-46.299429a18.285714 18.285714 0 0 1-7.094857-22.674285l82.066286-191.488L73.142857 383.488V91.428571a18.285714 18.285714 0 0 1 14.116572-17.773714L91.428571 73.142857h292.059429z m372.370286 662.016l-20.699429 20.699429 127.268572 127.268571h20.699428v-20.626286l-127.268571-127.268571zM337.115429 168.228571H168.228571v168.96l450.340572 342.308572-43.739429 102.180571 206.774857-206.848-102.180571 43.812572L337.188571 168.228571z" fill="#60666E" p-id="2882"></path></svg>